<svg width="39" height="41" viewBox="0 0 39 41" fill="none" xmlns="http://www.w3.org/2000/svg">
<g id="Frame">
<path id="&#60;Path&#62;" d="M19.5735 15.0112L7.73567 8.76076C7.67104 8.72643 7.61679 8.67428 7.57892 8.61005C7.54104 8.54581 7.521 8.47198 7.521 8.3967C7.521 8.32141 7.54104 8.24759 7.57892 8.18335C7.61679 8.11912 7.67104 8.06696 7.73567 8.03264L19.5735 1.74129C19.6857 1.68104 19.8102 1.6496 19.9365 1.6496C20.0629 1.6496 20.1874 1.68104 20.2995 1.74129L32.1374 8.03264C32.202 8.06696 32.2562 8.11912 32.2941 8.18335C32.332 8.24759 32.352 8.32141 32.352 8.3967C32.352 8.47198 32.332 8.54581 32.2941 8.61005C32.2562 8.67428 32.202 8.72643 32.1374 8.76076L20.2995 15.0112C20.1874 15.0714 20.0629 15.1029 19.9365 15.1029C19.8102 15.1029 19.6857 15.0714 19.5735 15.0112Z" fill="#656769" stroke="#45413C" stroke-linecap="round" stroke-linejoin="round"/>
<path id="&#60;Path&#62;_2" d="M7.54639 8.39261V14.8967" stroke="#45413C" stroke-linecap="round" stroke-linejoin="round"/>
<path id="&#60;Path&#62;_3" d="M8.30401 14.8885C8.3116 14.7763 8.29681 14.6638 8.26056 14.5578C8.22431 14.4518 8.16739 14.3547 8.09333 14.2726C8.01928 14.1905 7.92969 14.125 7.83015 14.0804C7.73062 14.0357 7.62327 14.0128 7.51482 14.0131C7.40636 14.0128 7.29902 14.0357 7.19948 14.0804C7.09994 14.125 7.01035 14.1905 6.9363 14.2726C6.86225 14.3547 6.80532 14.4518 6.76907 14.5578C6.73283 14.6638 6.71804 14.7763 6.72563 14.8885L6.57568 17.9073H8.45395L8.30401 14.8885Z" fill="#FFE500" stroke="#45413C" stroke-linecap="round" stroke-linejoin="round"/>
<path id="Vector" d="M25.8793 28.7229L19.9289 26.3749L13.9784 28.7229C12.9694 29.122 12.101 29.8292 11.488 30.751C10.875 31.6728 10.5463 32.7657 10.5454 33.8853V37.6486H29.3123V33.8853C29.3114 32.7657 28.9827 31.6728 28.3697 30.751C27.7567 29.8292 26.8883 29.122 25.8793 28.7229Z" fill="#656769"/>
<path id="Vector_2" d="M25.8793 28.7229L19.9289 26.3749L13.9784 28.7229C12.9694 29.122 12.101 29.8292 11.488 30.751C10.875 31.6728 10.5463 32.7657 10.5454 33.8853V36.3396C10.5463 35.22 10.875 34.1271 11.488 33.2054C12.101 32.2836 12.9694 31.5764 13.9784 31.1773L19.9289 28.8211L25.8793 31.1691C26.8883 31.5682 27.7567 32.2754 28.3697 33.1972C28.9827 34.1189 29.3114 35.2119 29.3123 36.3314V33.8771C29.3098 32.7589 28.9803 31.6678 28.3675 30.7476C27.7546 29.8275 26.8871 29.1215 25.8793 28.7229Z" fill="#525252"/>
<path id="Vector_3" d="M25.8793 28.7229L19.9289 26.3749L13.9784 28.7229C12.9694 29.122 12.101 29.8292 11.488 30.751C10.875 31.6728 10.5463 32.7657 10.5454 33.8853V37.6486H29.3123V33.8853C29.3114 32.7657 28.9827 31.6728 28.3697 30.751C27.7567 29.8292 26.8883 29.122 25.8793 28.7229V28.7229Z" stroke="#45413C" stroke-linecap="round" stroke-linejoin="round"/>
<path id="&#60;Path&#62;_4" d="M19.9289 29.5574C19.9289 29.5574 17.9243 28.6493 17.9243 27.4794V25.1477C17.9233 24.8742 17.9744 24.6031 18.0746 24.35C18.1749 24.0969 18.3224 23.8669 18.5086 23.6731C18.6949 23.4792 18.9162 23.3254 19.1599 23.2205C19.4037 23.1155 19.665 23.0615 19.9289 23.0615C20.1928 23.0615 20.4541 23.1155 20.6978 23.2205C20.9415 23.3254 21.1628 23.4792 21.3491 23.6731C21.5353 23.8669 21.6828 24.0969 21.7831 24.35C21.8834 24.6031 21.9344 24.8742 21.9334 25.1477V27.4794C21.9334 28.6493 19.9289 29.5574 19.9289 29.5574Z" fill="#FFE500"/>
<path id="&#60;Path&#62;_5" d="M19.9289 23.0615C19.3972 23.0615 18.8874 23.2805 18.5114 23.6702C18.1355 24.0599 17.9243 24.5884 17.9243 25.1395V25.6304C17.9243 26.1815 18.1355 26.7101 18.5114 27.0998C18.8874 27.4895 19.3972 27.7084 19.9289 27.7084C20.4605 27.7084 20.9704 27.4895 21.3463 27.0998C21.7222 26.7101 21.9334 26.1815 21.9334 25.6304V25.1477C21.9344 24.8742 21.8833 24.6031 21.7831 24.35C21.6828 24.0969 21.5353 23.8669 21.3491 23.6731C21.1628 23.4792 20.9415 23.3254 20.6978 23.2205C20.4541 23.1155 20.1928 23.0615 19.9289 23.0615Z" fill="#EBCB00"/>
<path id="&#60;Path&#62;_6" d="M19.9289 29.5574C19.9289 29.5574 17.9243 28.6493 17.9243 27.4794V25.1477C17.9233 24.8742 17.9744 24.6031 18.0746 24.35C18.1749 24.0969 18.3224 23.8669 18.5086 23.6731C18.6949 23.4792 18.9162 23.3254 19.1599 23.2205C19.4037 23.1155 19.665 23.0615 19.9289 23.0615V23.0615C20.1928 23.0615 20.4541 23.1155 20.6978 23.2205C20.9415 23.3254 21.1628 23.4792 21.3491 23.6731C21.5353 23.8669 21.6828 24.0969 21.7831 24.35C21.8834 24.6031 21.9344 24.8742 21.9334 25.1477V27.4794C21.9334 28.6493 19.9289 29.5574 19.9289 29.5574Z" stroke="#45413C" stroke-linecap="round" stroke-linejoin="round"/>
<path id="&#60;Path&#62;_7" d="M11.603 30.5719L14.452 37.6486" stroke="#45413C" stroke-linecap="round" stroke-linejoin="round"/>
<path id="&#60;Path&#62;_8" d="M28.2547 30.5719L25.4058 37.6486" stroke="#45413C" stroke-linecap="round" stroke-linejoin="round"/>
<path id="&#60;Path&#62;_9" d="M17.1982 33.9507L17.7743 37.6486" stroke="#45413C" stroke-linecap="round" stroke-linejoin="round"/>
<path id="&#60;Path&#62;_10" d="M22.6596 33.9507L22.0835 37.6486" stroke="#45413C" stroke-linecap="round" stroke-linejoin="round"/>
<path id="&#60;Ellipse&#62;" opacity="0.15" d="M19.9286 39.2848C26.4665 39.2848 31.7665 38.7354 31.7665 38.0577C31.7665 37.3799 26.4665 36.8305 19.9286 36.8305C13.3908 36.8305 8.09082 37.3799 8.09082 38.0577C8.09082 38.7354 13.3908 39.2848 19.9286 39.2848Z" fill="#45413C"/>
<path id="&#60;Rectangle&#62;" d="M19.929 6.48639C21.9844 6.48639 23.9556 7.33282 25.409 8.83948C26.8624 10.3461 27.6788 12.3896 27.6788 14.5203V18.7255H12.1792V14.5203C12.1792 12.3896 12.9957 10.3461 14.4491 8.83948C15.9024 7.33282 17.8736 6.48639 19.929 6.48639Z" fill="#724F3D" stroke="#45413C" stroke-linecap="round" stroke-linejoin="round"/>
<path id="Vector_4" d="M28.5072 18.1119C28.4688 17.8115 28.3434 17.5302 28.1476 17.3052C27.9517 17.0803 27.6946 16.9222 27.4102 16.852L26.9446 16.7211C26.6015 16.6206 26.2998 16.4061 26.0859 16.1104C25.872 15.8148 25.7578 15.4544 25.7608 15.0849V13.4159C25.76 13.0785 25.6521 12.7508 25.4539 12.4832C25.2557 12.2156 24.9781 12.023 24.6639 11.9351C23.159 12.5579 21.5488 12.8611 19.9287 12.8268C18.3087 12.8611 16.6985 12.5579 15.1936 11.9351C14.8779 12.0215 14.5986 12.2134 14.3988 12.4812C14.1991 12.7489 14.0901 13.0774 14.0887 13.4159V15.1012C14.0918 15.4708 13.9776 15.8311 13.7637 16.1268C13.5498 16.4224 13.248 16.637 12.905 16.7375L12.4393 16.8684C12.155 16.9386 11.8979 17.0966 11.702 17.3216C11.5061 17.5466 11.3807 17.8278 11.3424 18.1283C11.3213 18.3354 11.3426 18.5448 11.4048 18.7428C11.4671 18.9408 11.569 19.1229 11.7038 19.2774C11.8386 19.4318 12.0033 19.555 12.1872 19.6389C12.371 19.7229 12.5699 19.7656 12.7708 19.7645H12.8576C13.0423 21.573 13.866 23.2467 15.1702 24.4631C16.4743 25.6795 18.1665 26.3525 19.9208 26.3525C21.6751 26.3525 23.3674 25.6795 24.6715 24.4631C25.9757 23.2467 26.7994 21.573 26.9841 19.7645H27.0709C27.2739 19.7671 27.4752 19.7248 27.6612 19.6404C27.8472 19.556 28.0137 19.4314 28.1497 19.275C28.2856 19.1186 28.3878 18.934 28.4494 18.7334C28.5111 18.5329 28.5308 18.321 28.5072 18.1119Z" fill="#FFE500" stroke="#45413C" stroke-linecap="round" stroke-linejoin="round"/>
<path id="&#60;Path&#62;_11" d="M15.6436 17.9401C15.6436 18.0647 15.6792 18.1865 15.746 18.29C15.8128 18.3936 15.9077 18.4744 16.0187 18.5221C16.1298 18.5697 16.252 18.5822 16.3698 18.5579C16.4877 18.5336 16.596 18.4736 16.681 18.3855C16.766 18.2974 16.8238 18.1852 16.8473 18.063C16.8707 17.9408 16.8587 17.8141 16.8127 17.699C16.7667 17.5839 16.6888 17.4855 16.5889 17.4163C16.489 17.3471 16.3715 17.3101 16.2513 17.3101C16.1712 17.309 16.0917 17.3246 16.0175 17.3558C15.9433 17.3871 15.8759 17.4335 15.8192 17.4922C15.7626 17.5509 15.7179 17.6208 15.6877 17.6977C15.6575 17.7746 15.6425 17.857 15.6436 17.9401Z" fill="#45413C" stroke="#45413C" stroke-linecap="round" stroke-linejoin="round"/>
<path id="&#60;Path&#62;_12" d="M24.2139 17.9401C24.2139 18.0647 24.1782 18.1865 24.1115 18.29C24.0447 18.3936 23.9498 18.4744 23.8388 18.5221C23.7277 18.5697 23.6055 18.5822 23.4877 18.5579C23.3698 18.5336 23.2615 18.4736 23.1765 18.3855C23.0915 18.2974 23.0337 18.1852 23.0102 18.063C22.9868 17.9408 22.9988 17.8141 23.0448 17.699C23.0908 17.5839 23.1687 17.4855 23.2686 17.4163C23.3685 17.3471 23.486 17.3101 23.6062 17.3101C23.6863 17.309 23.7658 17.3246 23.84 17.3558C23.9142 17.3871 23.9816 17.4335 24.0383 17.4922C24.0949 17.5509 24.1396 17.6208 24.1698 17.6977C24.2 17.7746 24.2149 17.857 24.2139 17.9401Z" fill="#45413C" stroke="#45413C" stroke-linecap="round" stroke-linejoin="round"/>
<g id="&#60;Group&#62;">
<g id="&#60;Group&#62;_2">
<g id="&#60;Group&#62;_3">
<g id="&#60;Group&#62;_4">
<g id="&#60;Group&#62;_5">
<g id="&#60;Group&#62;_6">
<g id="&#60;Group&#62;_7">
<path id="&#60;Path&#62;_13" d="M17.6874 21.7771C17.6374 21.7782 17.5883 21.7905 17.5434 21.813C17.4984 21.8356 17.4587 21.868 17.427 21.908C17.3939 21.9465 17.3697 21.9922 17.356 22.0418C17.3424 22.0914 17.3396 22.1435 17.348 22.1943C17.4546 22.8236 17.7718 23.3938 18.2437 23.8047C18.7157 24.2156 19.3123 24.4409 19.9287 24.4409C20.545 24.4409 21.1416 24.2156 21.6136 23.8047C22.0856 23.3938 22.4028 22.8236 22.5093 22.1943C22.5177 22.1435 22.515 22.0914 22.5013 22.0418C22.4877 21.9922 22.4634 21.9465 22.4304 21.908C22.3986 21.868 22.3589 21.8356 22.314 21.813C22.269 21.7905 22.2199 21.7782 22.17 21.7771H17.6874Z" fill="#FF6242"/>
<path id="&#60;Path&#62;_14" d="M19.9287 22.9224C19.2162 22.8935 18.5152 23.1156 17.9399 23.5524C18.1886 23.8395 18.4928 24.0691 18.8327 24.2262C19.1727 24.3834 19.5407 24.4647 19.9129 24.4647C20.2851 24.4647 20.6532 24.3834 20.9931 24.2262C21.333 24.0691 21.6372 23.8395 21.8859 23.5524C21.3192 23.1226 20.6305 22.9009 19.9287 22.9224Z" fill="#FFA694"/>
</g>
</g>
</g>
</g>
</g>
</g>
</g>
<g id="&#60;Group&#62;_8">
<path id="&#60;Path&#62;_15" d="M17.6874 21.7771C17.6374 21.7782 17.5883 21.7905 17.5434 21.813C17.4984 21.8356 17.4587 21.868 17.427 21.908C17.3939 21.9465 17.3697 21.9922 17.356 22.0418C17.3424 22.0914 17.3396 22.1435 17.348 22.1943C17.4546 22.8236 17.7718 23.3938 18.2437 23.8047C18.7157 24.2156 19.3123 24.4409 19.9287 24.4409C20.545 24.4409 21.1416 24.2156 21.6136 23.8047C22.0856 23.3938 22.4028 22.8236 22.5093 22.1943C22.5177 22.1435 22.515 22.0914 22.5013 22.0418C22.4877 21.9922 22.4634 21.9465 22.4304 21.908C22.3986 21.868 22.3589 21.8356 22.314 21.813C22.269 21.7905 22.2199 21.7782 22.17 21.7771H17.6874Z" stroke="#45413C" stroke-linecap="round" stroke-linejoin="round"/>
</g>
<path id="&#60;Ellipse&#62;_2" d="M15.2408 21.1144C15.6767 21.1144 16.03 20.8946 16.03 20.6235C16.03 20.3524 15.6767 20.1326 15.2408 20.1326C14.805 20.1326 14.4517 20.3524 14.4517 20.6235C14.4517 20.8946 14.805 21.1144 15.2408 21.1144Z" fill="#FFAA54"/>
<path id="&#60;Ellipse&#62;_3" d="M24.6163 21.1144C25.0522 21.1144 25.4055 20.8946 25.4055 20.6235C25.4055 20.3524 25.0522 20.1326 24.6163 20.1326C24.1805 20.1326 23.8271 20.3524 23.8271 20.6235C23.8271 20.8946 24.1805 21.1144 24.6163 21.1144Z" fill="#FFAA54"/>
<path id="&#60;Path&#62;_16" d="M12.5735 8.19626C12.5735 7.19815 15.6514 6.38821 19.9288 6.38821C24.2062 6.38821 27.284 7.20633 27.284 8.19626L28.0732 15.2239C28.0732 14.1767 24.435 13.3259 19.9446 13.3259C15.4541 13.3259 11.8159 14.144 11.8159 15.2239L12.5735 8.19626Z" fill="#656769"/>
<path id="&#60;Path&#62;_17" d="M19.9288 9.07165C23.5749 9.07165 26.4159 9.56252 27.5129 10.2416L27.2841 8.19626C27.2841 7.19815 24.2062 6.38821 19.9288 6.38821C15.6514 6.38821 12.5736 7.20633 12.5736 8.19626L12.3447 10.2661C13.4417 9.56252 16.2828 9.07165 19.9288 9.07165Z" fill="#525252"/>
<path id="&#60;Path&#62;_18" d="M12.5735 8.19626C12.5735 7.19815 15.6514 6.38821 19.9288 6.38821C24.2062 6.38821 27.284 7.20633 27.284 8.19626L28.0732 15.2239C28.0732 14.1767 24.435 13.3259 19.9446 13.3259C15.4541 13.3259 11.8159 14.144 11.8159 15.2239L12.5735 8.19626Z" stroke="#45413C" stroke-linecap="round" stroke-linejoin="round"/>
</g>
</svg>
