<svg width="18" height="19" viewBox="0 0 18 19" fill="none" xmlns="http://www.w3.org/2000/svg">
<g id="fluent:delete-12-regular">
<path id="Vector" d="M7.5 4.66772H10.5C10.5 4.2699 10.342 3.88837 10.0607 3.60706C9.77936 3.32576 9.39782 3.16772 9 3.16772C8.60217 3.16772 8.22064 3.32576 7.93934 3.60706C7.65804 3.88837 7.5 4.2699 7.5 4.66772ZM6 4.66772C6 3.87207 6.31607 3.10901 6.87868 2.5464C7.44129 1.9838 8.20435 1.66772 9 1.66772C9.79565 1.66772 10.5587 1.9838 11.1213 2.5464C11.6839 3.10901 12 3.87207 12 4.66772H15.75C15.9489 4.66772 16.1397 4.74674 16.2803 4.88739C16.421 5.02805 16.5 5.21881 16.5 5.41772C16.5 5.61664 16.421 5.8074 16.2803 5.94805C16.1397 6.08871 15.9489 6.16772 15.75 6.16772H15.0885L14.424 13.9227C14.3601 14.6716 14.0175 15.3692 13.4639 15.8775C12.9103 16.3858 12.1861 16.6678 11.4345 16.6677H6.5655C5.81393 16.6678 5.08971 16.3858 4.53611 15.8775C3.98252 15.3692 3.63988 14.6716 3.576 13.9227L2.9115 6.16772H2.25C2.05109 6.16772 1.86032 6.08871 1.71967 5.94805C1.57902 5.8074 1.5 5.61664 1.5 5.41772C1.5 5.21881 1.57902 5.02805 1.71967 4.88739C1.86032 4.74674 2.05109 4.66772 2.25 4.66772H6ZM11.25 9.16772C11.25 8.96881 11.171 8.77805 11.0303 8.63739C10.8897 8.49674 10.6989 8.41772 10.5 8.41772C10.3011 8.41772 10.1103 8.49674 9.96967 8.63739C9.82902 8.77805 9.75 8.96881 9.75 9.16772V12.1677C9.75 12.3666 9.82902 12.5574 9.96967 12.6981C10.1103 12.8387 10.3011 12.9177 10.5 12.9177C10.6989 12.9177 10.8897 12.8387 11.0303 12.6981C11.171 12.5574 11.25 12.3666 11.25 12.1677V9.16772ZM7.5 8.41772C7.69891 8.41772 7.88968 8.49674 8.03033 8.63739C8.17098 8.77805 8.25 8.96881 8.25 9.16772V12.1677C8.25 12.3666 8.17098 12.5574 8.03033 12.6981C7.88968 12.8387 7.69891 12.9177 7.5 12.9177C7.30109 12.9177 7.11032 12.8387 6.96967 12.6981C6.82902 12.5574 6.75 12.3666 6.75 12.1677V9.16772C6.75 8.96881 6.82902 8.77805 6.96967 8.63739C7.11032 8.49674 7.30109 8.41772 7.5 8.41772ZM5.07 13.7952C5.10195 14.1698 5.27338 14.5187 5.55033 14.7729C5.82729 15.027 6.18959 15.168 6.5655 15.1677H11.4345C11.8102 15.1676 12.1721 15.0265 12.4487 14.7723C12.7254 14.5182 12.8966 14.1695 12.9285 13.7952L13.5825 6.16772H4.4175L5.07 13.7952Z" fill="#FF0000"/>
</g>
</svg>
