<svg width="16" height="17" viewBox="0 0 16 17" fill="none" xmlns="http://www.w3.org/2000/svg">
<g id="fa6-regular:pen-to-square" clip-path="url(#clip0_597_103)">
<path id="Vector" d="M13.7813 2.00834L14.1594 2.38647C14.4531 2.68022 14.4531 3.15522 14.1594 3.44584L13.25 4.35834L11.8094 2.91772L12.7188 2.00834C13.0125 1.71459 13.4875 1.71459 13.7781 2.00834H13.7813ZM6.55625 8.17397L10.75 3.97709L12.1906 5.41772L7.99375 9.61147C7.90313 9.7021 7.79063 9.76772 7.66875 9.80209L5.84063 10.324L6.3625 8.49584C6.39688 8.37397 6.4625 8.26147 6.55313 8.17084L6.55625 8.17397ZM11.6594 0.948969L5.49375 7.11147C5.22188 7.38334 5.025 7.71772 4.92188 8.08334L4.02813 11.2083C3.95313 11.4708 4.025 11.7521 4.21875 11.9458C4.4125 12.1396 4.69375 12.2115 4.95625 12.1365L8.08125 11.2427C8.45 11.1365 8.78438 10.9396 9.05313 10.6708L15.2188 4.50834C16.0969 3.63022 16.0969 2.20522 15.2188 1.32709L14.8406 0.948969C13.9625 0.0708435 12.5375 0.0708435 11.6594 0.948969ZM2.75 2.16772C1.23125 2.16772 0 3.39897 0 4.91772V13.4177C0 14.9365 1.23125 16.1677 2.75 16.1677H11.25C12.7688 16.1677 14 14.9365 14 13.4177V9.91772C14 9.5021 13.6656 9.16772 13.25 9.16772C12.8344 9.16772 12.5 9.5021 12.5 9.91772V13.4177C12.5 14.1083 11.9406 14.6677 11.25 14.6677H2.75C2.05938 14.6677 1.5 14.1083 1.5 13.4177V4.91772C1.5 4.22709 2.05938 3.66772 2.75 3.66772H6.25C6.66563 3.66772 7 3.33334 7 2.91772C7 2.50209 6.66563 2.16772 6.25 2.16772H2.75Z" fill="#0074BD"/>
</g>
<defs>
<clipPath id="clip0_597_103">
<rect width="16" height="16" fill="white" transform="translate(0 0.167725)"/>
</clipPath>
</defs>
</svg>
