<svg width="32" height="32" viewBox="0 0 32 32" fill="none" xmlns="http://www.w3.org/2000/svg">
<g id="devices/flopy">
<g id="Icon">
<path fill-rule="evenodd" clip-rule="evenodd" d="M9.33333 4H21.3333L28 10.6667V22.6667C28 25.6122 25.6122 28 22.6667 28H9.33333C6.38781 28 4 25.6122 4 22.6667V9.33333C4 6.38781 6.38781 4 9.33333 4ZM25.0505 25.0505C25.6821 24.4188 26.0338 23.56 26.0267 22.6667L26.0667 11.52L20.52 5.97333H9.33333C8.44003 5.96616 7.58122 6.31785 6.94954 6.94954C6.31785 7.58122 5.96616 8.44003 5.97333 9.33333V22.6667C5.96616 23.56 6.31785 24.4188 6.94954 25.0505C7.58122 25.6821 8.44003 26.0338 9.33333 26.0267H22.6667C23.56 26.0338 24.4188 25.6821 25.0505 25.0505Z" fill="black"/>
<path d="M18.04 8.78667H8.13333C7.58105 8.78667 7.13333 9.23438 7.13333 9.78667C7.13333 10.339 7.58105 10.7867 8.13333 10.7867H18.04C18.5923 10.7867 19.04 10.339 19.04 9.78667C19.04 9.23438 18.5923 8.78667 18.04 8.78667Z" fill="black"/>
<path fill-rule="evenodd" clip-rule="evenodd" d="M8.33877 18.6003C8.78176 17.5379 9.82225 16.8479 10.9733 16.8533C12.5345 16.8533 13.8 18.1188 13.8 19.68C13.8054 20.8311 13.1154 21.8715 12.053 22.3145C10.9906 22.7575 9.76579 22.5154 8.95185 21.7015C8.1379 20.8875 7.89577 19.6627 8.33877 18.6003ZM10.1878 20.0108C10.3221 20.3242 10.6324 20.5254 10.9733 20.52C11.432 20.5127 11.8001 20.1387 11.8 19.68C11.8 19.339 11.5938 19.0319 11.2783 18.9027C10.9628 18.7735 10.6005 18.8479 10.3613 19.0909C10.1221 19.3339 10.0536 19.6974 10.1878 20.0108Z" fill="black"/>
</g>
</g>
</svg>
