<svg width="32" height="32" viewBox="0 0 32 32" fill="none" xmlns="http://www.w3.org/2000/svg">
<g id="Interface essential/Key">
<g id="Icon">
<path fill-rule="evenodd" clip-rule="evenodd" d="M15.7896 22.7527L10.5967 27.9457C10.1969 28.2949 9.64677 28.4166 9.137 28.2685L5.81069 27.3141C5.30739 27.1671 4.9118 26.7768 4.75806 26.2755L3.73349 22.865C3.58611 22.3214 3.73537 21.7404 4.12648 21.3351L9.3335 16.1281C10.0406 15.4204 10.4392 14.4618 10.4423 13.4614C10.4401 12.9799 10.3448 12.5033 10.1616 12.0579C9.9858 11.6109 9.89535 11.1348 9.8949 10.6544C9.8918 9.65279 10.2913 8.69192 11.0037 7.98776L15.2142 3.77723C16.1674 2.82074 17.5588 2.44612 18.8633 2.79478L24.9405 4.43688C26.2592 4.77059 27.295 5.79026 27.6493 7.10355L29.2072 13.2369C29.2906 13.5577 29.333 13.8878 29.3335 14.2193C29.3304 15.2197 28.9318 16.1783 28.2247 16.886L24.0142 21.0965C22.9351 22.1753 21.3144 22.5016 19.9019 21.9246C18.4895 21.3476 16.8687 21.6739 15.7896 22.7527ZM5.79665 22.6404L6.62472 25.4474L9.3756 26.2193L14.33 21.265C16.0059 19.5789 18.5352 19.0742 20.73 19.9878C21.3624 20.2289 22.0775 20.0749 22.5545 19.5948L26.7651 15.3843C27.0826 15.0746 27.26 14.6488 27.2563 14.2053C27.2776 14.0611 27.2776 13.9145 27.2563 13.7702L25.6142 7.65092C25.4595 7.07586 25.0103 6.62668 24.4353 6.47198L18.2598 4.82987C17.6827 4.67585 17.0673 4.84175 16.6458 5.26496L12.4352 9.47548C12.1178 9.78516 11.9403 10.2109 11.944 10.6544C11.9461 10.8697 11.984 11.0832 12.0563 11.286C12.3464 11.9794 12.4944 12.7239 12.4914 13.4755C12.5091 15.0547 11.8863 16.5737 10.7651 17.686L5.79665 22.6404Z" fill="#081C15"/>
<path d="M22.7089 13.7281L18.3581 9.37724C17.9471 8.96678 17.2813 8.96678 16.8703 9.37724C16.4599 9.78821 16.4599 10.454 16.8703 10.865L21.2212 15.2158C21.4167 15.4165 21.685 15.5296 21.9651 15.5296C22.2452 15.5296 22.5134 15.4165 22.7089 15.2158C23.1194 14.8049 23.1194 14.1391 22.7089 13.7281Z" fill="#081C15"/>
</g>
</g>
</svg>
