<svg width="24" height="25" viewBox="0 0 24 25" fill="none" xmlns="http://www.w3.org/2000/svg">
<g id="mortarboard-fill">
<g id="Union">
<path d="M12.3172 3.62955C12.1161 3.53573 11.8839 3.53573 11.6828 3.62955L0.432838 8.87955C0.161871 9.006 -0.00809256 9.28133 0.000296991 9.58023C0.00868649 9.87913 0.193826 10.1445 0.471459 10.2555L11.7215 14.7555C11.9003 14.8271 12.0997 14.8271 12.2785 14.7555L21 11.267V20.0592C20.1716 20.0592 19.5 20.7308 19.5 21.5592V24.5592H24V21.5592C24 20.7308 23.3284 20.0592 22.5 20.0592V10.667L23.5285 10.2555C23.8062 10.1445 23.9913 9.87913 23.9997 9.58023C24.0081 9.28133 23.8381 9.006 23.5672 8.87955L12.3172 3.62955Z" fill="black"/>
<path d="M6.26334 14.1069C6.06823 14.0338 5.85148 14.0451 5.66503 14.1381C5.47859 14.2312 5.33928 14.3977 5.28048 14.5976L4.53048 17.1476C4.42133 17.5187 4.61231 17.9119 4.97146 18.0555L11.7215 20.7555C11.9003 20.8271 12.0997 20.8271 12.2785 20.7555L19.0285 18.0555C19.3877 17.9119 19.5787 17.5187 19.4695 17.1476L18.7195 14.5976C18.6607 14.3977 18.5214 14.2312 18.335 14.1381C18.1485 14.0451 17.9318 14.0338 17.7367 14.1069L12 16.2582L6.26334 14.1069Z" fill="black"/>
</g>
</g>
</svg>
