<svg width="50" height="50" viewBox="0 0 50 50" fill="none" xmlns="http://www.w3.org/2000/svg">
<g id="Th&#195;&#180;ng b&#195;&#161;o">
<circle id="Ellipse 1570" cx="25" cy="25" r="25" fill="#D9E5F7"/>
<g id="Group 120">
<path id="Vector" d="M30.7308 28.6154V28.8225L30.8772 28.9689L33.1923 31.284V31.8077H14.5V31.284L16.8151 28.9689L16.9615 28.8225V28.6154V22.4615C16.9615 18.8451 18.8599 15.9409 22.1153 15.1696L22.5 15.0785V14.6831V13.8462C22.5 13.1008 23.1008 12.5 23.8462 12.5C24.5915 12.5 25.1923 13.1008 25.1923 13.8462V14.6831V15.0781L25.5767 15.1695C28.8204 15.9408 30.7308 18.8579 30.7308 22.4615V28.6154ZM25.7425 34.0385C25.5196 34.8766 24.7513 35.5 23.8462 35.5C22.9319 35.5 22.1695 34.8774 21.9489 34.0385H25.7425Z" fill="white" stroke="#7373FF"/>
<circle id="Ellipse 38" cx="30" cy="16" r="4" fill="#FA3E3E"/>
</g>
</g>
</svg>
