<svg width="32" height="32" viewBox="0 0 32 32" fill="none" xmlns="http://www.w3.org/2000/svg">
<g id="User/Person">
<g id="Icon">
<path fill-rule="evenodd" clip-rule="evenodd" d="M26.1066 22.28L26.4266 23.8C26.7299 25.1141 26.4305 26.495 25.6102 27.5655C24.7899 28.636 23.5344 29.2843 22.1866 29.3333H9.8133C8.46553 29.2843 7.21005 28.636 6.38976 27.5655C5.56946 26.495 5.27005 25.1141 5.5733 23.8L5.8933 22.28C6.26134 20.2224 8.03013 18.7103 10.12 18.6667H21.88C23.9698 18.7103 25.7386 20.2224 26.1066 22.28ZM22.1866 27.32C22.8637 27.3121 23.5009 26.9985 23.92 26.4667V26.48C24.4342 25.8349 24.6346 24.9944 24.4666 24.1867L24.1466 22.6667C23.9691 21.5402 23.0195 20.6968 21.88 20.6533H10.12C8.98045 20.6968 8.03085 21.5402 7.8533 22.6667L7.5333 24.1867C7.36951 24.9901 7.56965 25.8249 8.07997 26.4667C8.49908 26.9985 9.13625 27.3121 9.8133 27.32H22.1866Z" fill="#081C15"/>
<path fill-rule="evenodd" clip-rule="evenodd" d="M16.6666 16H15.3333C12.3878 16 9.99994 13.6122 9.99994 10.6666V7.14665C9.99639 5.95739 10.4672 4.81582 11.3082 3.97488C12.1491 3.13395 13.2907 2.66309 14.4799 2.66665H17.5199C18.7092 2.66309 19.8508 3.13395 20.6917 3.97488C21.5326 4.81582 22.0035 5.95739 21.9999 7.14665V10.6666C21.9999 13.6122 19.6121 16 16.6666 16ZM14.4799 4.66665C13.1103 4.66665 11.9999 5.77698 11.9999 7.14665V10.6666C11.9999 12.5076 13.4923 14 15.3333 14H16.6666C18.5076 14 19.9999 12.5076 19.9999 10.6666V7.14665C19.9999 6.48891 19.7387 5.85811 19.2736 5.39302C18.8085 4.92793 18.1777 4.66665 17.5199 4.66665H14.4799Z" fill="#081C15"/>
</g>
</g>
</svg>
