<svg width="25" height="25" viewBox="0 0 25 25" fill="none" xmlns="http://www.w3.org/2000/svg">
<g id="fluent:add-16-filled">
<g id="Vector">
<path d="M13.25 4.98007C13.25 4.6817 13.1315 4.39556 12.9205 4.18458C12.7095 3.9736 12.4234 3.85507 12.125 3.85507C11.8266 3.85507 11.5405 3.9736 11.3295 4.18458C11.1185 4.39556 11 4.6817 11 4.98007V11.3551H4.625C4.32663 11.3551 4.04048 11.4736 3.8295 11.6846C3.61853 11.8956 3.5 12.1817 3.5 12.4801C3.5 12.7784 3.61853 13.0646 3.8295 13.2756C4.04048 13.4865 4.32663 13.6051 4.625 13.6051H11V19.9801C11 20.2784 11.1185 20.5646 11.3295 20.7756C11.5405 20.9865 11.8266 21.1051 12.125 21.1051C12.4234 21.1051 12.7095 20.9865 12.9205 20.7756C13.1315 20.5646 13.25 20.2784 13.25 19.9801V13.6051H19.625C19.9234 13.6051 20.2095 13.4865 20.4205 13.2756C20.6315 13.0646 20.75 12.7784 20.75 12.4801C20.75 12.1817 20.6315 11.8956 20.4205 11.6846C20.2095 11.4736 19.9234 11.3551 19.625 11.3551H13.25V4.98007Z" fill="#00355D"/>
<path d="M13.25 4.98007C13.25 4.6817 13.1315 4.39556 12.9205 4.18458C12.7095 3.9736 12.4234 3.85507 12.125 3.85507C11.8266 3.85507 11.5405 3.9736 11.3295 4.18458C11.1185 4.39556 11 4.6817 11 4.98007V11.3551H4.625C4.32663 11.3551 4.04048 11.4736 3.8295 11.6846C3.61853 11.8956 3.5 12.1817 3.5 12.4801C3.5 12.7784 3.61853 13.0646 3.8295 13.2756C4.04048 13.4865 4.32663 13.6051 4.625 13.6051H11V19.9801C11 20.2784 11.1185 20.5646 11.3295 20.7756C11.5405 20.9865 11.8266 21.1051 12.125 21.1051C12.4234 21.1051 12.7095 20.9865 12.9205 20.7756C13.1315 20.5646 13.25 20.2784 13.25 19.9801V13.6051H19.625C19.9234 13.6051 20.2095 13.4865 20.4205 13.2756C20.6315 13.0646 20.75 12.7784 20.75 12.4801C20.75 12.1817 20.6315 11.8956 20.4205 11.6846C20.2095 11.4736 19.9234 11.3551 19.625 11.3551H13.25V4.98007Z" fill="black" fill-opacity="0.2"/>
<path d="M13.25 4.98007C13.25 4.6817 13.1315 4.39556 12.9205 4.18458C12.7095 3.9736 12.4234 3.85507 12.125 3.85507C11.8266 3.85507 11.5405 3.9736 11.3295 4.18458C11.1185 4.39556 11 4.6817 11 4.98007V11.3551H4.625C4.32663 11.3551 4.04048 11.4736 3.8295 11.6846C3.61853 11.8956 3.5 12.1817 3.5 12.4801C3.5 12.7784 3.61853 13.0646 3.8295 13.2756C4.04048 13.4865 4.32663 13.6051 4.625 13.6051H11V19.9801C11 20.2784 11.1185 20.5646 11.3295 20.7756C11.5405 20.9865 11.8266 21.1051 12.125 21.1051C12.4234 21.1051 12.7095 20.9865 12.9205 20.7756C13.1315 20.5646 13.25 20.2784 13.25 19.9801V13.6051H19.625C19.9234 13.6051 20.2095 13.4865 20.4205 13.2756C20.6315 13.0646 20.75 12.7784 20.75 12.4801C20.75 12.1817 20.6315 11.8956 20.4205 11.6846C20.2095 11.4736 19.9234 11.3551 19.625 11.3551H13.25V4.98007Z" fill="black" fill-opacity="0.2"/>
</g>
</g>
</svg>
