<svg width="30" height="38" viewBox="0 0 30 38" fill="none" xmlns="http://www.w3.org/2000/svg">
<g id="Group 120">
<path id="Vector" d="M25.75 26.3077V26.5092L25.8897 26.6544L29.5 30.4066V31.6538H0.5V30.4066L4.1103 26.6544L4.25 26.5092V26.3077V16.5641C4.25 10.7225 7.2104 5.98875 12.3071 4.7337L12.6875 4.64002V4.2482V2.92308C12.6875 1.56344 13.7379 0.5 15 0.5C16.2621 0.5 17.3125 1.56344 17.3125 2.92308V4.2482V4.63969L17.6926 4.7336C22.7712 5.98858 25.75 10.7425 25.75 16.5641V26.3077ZM18.2148 34.6026C17.9806 36.2486 16.609 37.5 15 37.5C13.3753 37.5 12.0164 36.2498 11.7848 34.6026H18.2148Z" stroke="black"/>
</g>
</svg>
